<svg width="60" height="60" viewBox="0 0 60 60" fill="none" xmlns="http://www.w3.org/2000/svg">
<rect width="60" height="60" rx="19.9997" fill="#FCEDEE"/>
<path d="M34.2437 34.1605L25.929 36.6185C26.3426 37.4176 26.9813 38.0659 27.7481 38.493V42.9323H26.3318C25.7718 42.9323 25.3205 43.3957 25.3205 43.9659C25.3205 44.5361 25.7729 44.9995 26.3318 44.9995H34.6777C35.2378 44.9995 35.6891 44.5361 35.6891 43.9659C35.6891 43.3957 35.2367 42.9323 34.6777 42.9323H33.2615V37.3449C33.2615 37.346 34.3191 36.2915 34.2437 34.1605ZM31.2377 42.9323H29.7719L29.759 39.0555C30.4493 39.0379 31.2377 38.7858 31.2377 38.7858V42.9323ZM18.6246 26.4971L21.8115 24.8405L25.6479 34.5502L22.1325 35.5893C22.1325 35.5893 21.1093 35.9844 20.7141 34.4676L19.0145 35.1523C19.0145 35.1523 18.182 35.5155 17.7016 34.5689L16.0699 30.331C15.8653 29.8004 16.1205 29.2005 16.6397 28.9903L18.336 28.3056C18.3371 28.3045 17.6661 26.9958 18.6246 26.4971ZM32.9125 17.3235L36.8727 15.1397C37.7957 14.6311 38.2933 15.6702 38.2933 15.6702L43.7173 29.7256C44.0274 30.9045 43.0301 31.1048 43.0301 31.1048L38.6735 32.2639C37.631 32.5413 37.2723 31.1125 37.2723 31.1125L27.6017 33.9723L23.6231 23.8994L32.6734 19.1926C32.6734 19.1915 31.9249 17.8684 32.9125 17.3235Z" fill="#B85A60"/>
</svg>
