<svg width="60" height="60" viewBox="0 0 60 60" fill="none" xmlns="http://www.w3.org/2000/svg">
<rect width="60" height="60" rx="20" fill="#DEFEEA"/>
<path d="M30.0002 21.2903C25.2827 21.2903 21.4453 25.1991 21.4453 30.0044C21.4453 34.8097 25.2831 38.7182 30.0002 38.7182C34.7173 38.7182 38.5551 34.8097 38.5551 30.0044C38.5551 25.1991 34.7173 21.2903 30.0002 21.2903ZM34.6048 30.5995L29.4156 30.5988L29.4159 22.9924H30.5848L30.5844 29.4085L34.6048 29.4089V30.5995Z" fill="#0F642F"/>
<path d="M44.9888 29.4908C44.9865 29.4354 44.982 29.3781 44.9797 29.322C44.973 29.2009 44.9655 29.079 44.9561 28.9541C44.9509 28.8869 44.9441 28.8189 44.9381 28.7505C44.9269 28.6317 44.9145 28.5114 44.9006 28.3892C44.8927 28.3174 44.8838 28.2452 44.8748 28.1722C44.868 28.1226 44.8609 28.071 44.8538 28.0206L40.2049 26.6252L40.2052 26.6248H40.2049L43.1674 22.7061C42.5362 21.525 41.7724 20.4501 40.8919 19.502L36.3075 21.1633L36.441 16.2185C35.2714 15.6513 34.0298 15.2422 32.7416 15L30 19.0738L27.2655 15.0084C27.0892 15.0413 26.9134 15.0756 26.7386 15.1154C26.6258 15.1406 26.5117 15.1627 26.3996 15.1906C26.0516 15.2777 25.707 15.374 25.3676 15.4859C25.3545 15.4905 25.3414 15.4958 25.3282 15.5004C25.0005 15.6093 24.6776 15.7311 24.3589 15.8633C24.2486 15.9087 24.141 15.9599 24.0322 16.008C23.8732 16.0787 23.7161 16.1532 23.5597 16.2292L23.6932 21.1625H23.6929V21.1629L19.3616 19.5929L19.1194 19.5051C19.0046 19.6285 18.8914 19.7526 18.7808 19.8802C18.6983 19.9749 18.6135 20.0674 18.5336 20.1648C18.3274 20.4146 18.129 20.6724 17.9385 20.9371C17.9085 20.9788 17.8774 21.0196 17.8477 21.062C17.6509 21.3413 17.4634 21.6289 17.2841 21.923C17.2189 22.0304 17.1589 22.1415 17.0959 22.2508C17.0081 22.4028 16.9238 22.5579 16.8405 22.7133L19.7959 26.6244L19.7955 26.6248L15.1459 28.0206C15.1391 28.0699 15.1316 28.1203 15.1256 28.1692C15.1163 28.2452 15.1072 28.3204 15.0986 28.3945C15.0847 28.5141 15.0731 28.6321 15.0626 28.7482C15.0559 28.8185 15.0495 28.8892 15.0439 28.9576C15.0341 29.0806 15.0274 29.2009 15.0206 29.3208C15.0176 29.3781 15.0135 29.4362 15.0112 29.4927C15.0041 29.6665 15 29.8377 15 30.0046C15 30.1715 15.0041 30.3419 15.0112 30.5157C15.0135 30.5714 15.018 30.6295 15.0206 30.686C15.027 30.806 15.0341 30.9271 15.0439 31.0504C15.0495 31.1188 15.0559 31.1883 15.0623 31.2582C15.0731 31.3744 15.0848 31.492 15.0983 31.6123C15.1069 31.6876 15.1159 31.7628 15.1256 31.8389C15.1316 31.887 15.1391 31.9374 15.1459 31.9863L19.7947 33.3821L16.8398 37.2924C16.9271 37.457 17.0156 37.6194 17.1082 37.779C17.1652 37.8784 17.22 37.9796 17.2793 38.0774C17.4697 38.3898 17.6677 38.6958 17.8777 38.9922C17.8819 38.9979 17.886 39.0021 17.8901 39.0079C18.0968 39.2986 18.3142 39.5782 18.5392 39.8509C18.6105 39.938 18.6866 40.0197 18.7594 40.1045C18.8767 40.2401 18.9975 40.3719 19.1194 40.5029L23.6925 38.8455H23.6932L23.5597 43.7792C23.7285 43.8606 23.8969 43.9415 24.0682 44.0164C24.1616 44.0573 24.2535 44.102 24.3476 44.1413C25.0147 44.4171 25.7017 44.6432 26.4045 44.8186C26.5117 44.8457 26.6201 44.8667 26.7281 44.8904C26.9055 44.9305 27.0844 44.9656 27.2636 44.9989L29.4795 41.7054L30 40.9327L31.1674 42.6684L32.7356 45C32.9115 44.9675 33.0866 44.9332 33.2603 44.8938C33.3731 44.8686 33.4871 44.8468 33.6 44.8189C33.9491 44.7315 34.2952 44.6344 34.6365 44.5221C34.6376 44.5214 34.6388 44.5214 34.6395 44.5206C34.9796 44.4087 35.3141 44.2819 35.6453 44.1447C35.7491 44.1023 35.8507 44.0535 35.9539 44.0076C36.1178 43.9358 36.2794 43.8579 36.4403 43.7796L36.3075 38.8467L40.881 40.5041C41.0002 40.3754 41.1191 40.2459 41.2335 40.1129C41.3092 40.0255 41.3876 39.9407 41.4615 39.8505C41.6839 39.5808 41.8988 39.3031 42.1035 39.0155C42.1095 39.0079 42.1159 39.001 42.1215 38.9922C42.3315 38.6977 42.5291 38.3917 42.7192 38.0789C42.7804 37.9788 42.8363 37.8753 42.8951 37.7737C42.987 37.6155 43.0748 37.4551 43.161 37.2928L40.2045 33.3817L44.8534 31.9859C44.8601 31.937 44.8673 31.8866 44.8736 31.8377C44.8834 31.7632 44.8924 31.6887 44.9006 31.615C44.9141 31.4943 44.9261 31.3763 44.9374 31.2594C44.9438 31.1895 44.9505 31.1207 44.9558 31.0524C44.9651 30.9282 44.9726 30.8071 44.9794 30.6864C44.9824 30.6307 44.9869 30.5734 44.9888 30.5176C44.9963 30.3434 45 30.1719 45 30.0042C45 29.8365 44.9959 29.665 44.9888 29.4908ZM30 39.9086C24.6383 39.9086 20.2762 35.4658 20.2762 30.0042C20.2762 24.5426 24.6383 20.0991 30 20.0991C35.3617 20.0991 39.7241 24.5426 39.7241 30.0042C39.7241 35.4661 35.3617 39.9086 30 39.9086Z" fill="#0F642F"/>
</svg>
