<svg width="60" height="60" viewBox="0 0 60 60" fill="none" xmlns="http://www.w3.org/2000/svg">
<rect width="60" height="60" rx="20" fill="#FFEEA6"/>
<path d="M29.7666 22.1416C29.5631 22.1418 29.3254 22.2897 29.2355 22.4722L28.069 24.8406L14.6386 24.7833C14.1669 24.7754 14.1641 25.4859 14.6359 25.4814L27.7261 25.5374L25.8342 29.379H14.6475C14.1754 29.3724 14.1754 30.0837 14.6475 30.0771H25.4899L23.5995 33.9166H14.6372C14.1652 33.91 14.1652 34.6214 14.6372 34.6147H23.2552L21.9974 37.1692C21.9075 37.3517 21.9995 37.4996 22.2026 37.4999H37.1962C37.3997 37.4997 37.6374 37.3517 37.7273 37.1692L44.9654 22.4722C45.0552 22.2898 44.9632 22.1419 44.7601 22.1416H29.7666Z" fill="#B89500"/>
</svg>
